<svg xmlns="http://www.w3.org/2000/svg" viewBox="0 0 512 512">
  <defs>
    <linearGradient id="bg" x1="0" y1="0" x2="1" y2="1">
      <stop offset="0%" stop-color="#22C55E"/>
      <stop offset="100%" stop-color="#15803D"/>
    </linearGradient>
  </defs>
  <rect width="512" height="512" rx="96" fill="url(#bg)"/>
  <!-- Bold P letter -->
  <path d="M148 400V112h120c66 0 112 46 112 104s-46 104-112 104H212v80h-64zm64-136h56c28 0 48-20 48-48s-20-48-48-48h-56v96z" fill="#fff"/>
  <!-- Open book icon (teacher/education symbol) -->
  <g transform="translate(340, 340) scale(0.9)" fill="none" stroke="#fff" stroke-width="8" stroke-linecap="round" stroke-linejoin="round">
    <path d="M0 10C0 10 16-4 40 2v70c-24-6-40 2-40 2z" fill="rgba(255,255,255,0.25)"/>
    <path d="M0 10C0 10-16-4-40 2v70c24-6 40 2 40 2z" fill="rgba(255,255,255,0.25)"/>
    <line x1="0" y1="10" x2="0" y2="82"/>
  </g>
</svg>
